<?xml version="1.0" standalone="no"?>
<!DOCTYPE svg PUBLIC "-//W3C//DTD SVG 20010904//EN"
 "http://www.w3.org/TR/2001/REC-SVG-20010904/DTD/svg10.dtd">
<svg version="1.0" xmlns="http://www.w3.org/2000/svg"
 width="146.000000pt" height="146.000000pt" viewBox="0 0 146.000000 146.000000"
 preserveAspectRatio="xMidYMid meet">
<metadata>
Created by potrace 1.14, written by Peter Selinger 2001-2017
</metadata>
<g transform="translate(0.000000,146.000000) scale(0.100000,-0.100000)"
fill="#000000" stroke="none">
<path d="M70 1429 c0 -28 3 -31 25 -27 14 3 33 -1 42 -8 16 -11 18 -37 19
-263 2 -275 0 -285 -55 -283 -28 1 -31 -2 -31 -29 l0 -30 433 3 432 3 3 28 c3
25 1 27 -31 27 -46 0 -51 18 -31 91 l17 59 102 0 103 0 16 -47 c9 -26 16 -59
16 -75 0 -25 -3 -28 -36 -28 -33 0 -35 -2 -32 -27 l3 -28 162 -1 163 0 0 28
c0 21 -5 28 -20 28 -10 0 -27 9 -37 20 -10 10 -61 141 -113 290 l-94 270 -81
0 -80 0 -80 -221 c-115 -317 -119 -327 -133 -341 -7 -7 -39 -15 -71 -18 l-59
-6 47 52 c128 141 119 397 -18 496 -76 54 -135 65 -368 67 l-213 2 0 -32z
m371 -44 c38 -9 87 -61 101 -109 20 -69 14 -222 -10 -290 -24 -65 -43 -91 -84
-112 -36 -19 -89 -24 -94 -10 -2 6 -5 127 -6 268 -3 295 -11 275 93 253z m578
-122 c7 -31 23 -87 36 -125 13 -37 22 -69 22 -69 -7 -7 -157 -4 -157 2 0 5 16
57 35 116 19 59 35 114 35 121 0 32 17 6 29 -45z"/>
<path d="M70 622 c0 -25 4 -29 31 -29 18 0 37 -7 44 -16 17 -23 15 -491 -2
-508 -6 -6 -25 -12 -42 -13 -27 -1 -31 -4 -31 -28 l0 -28 200 0 200 0 0 28 c0
26 -2 27 -50 28 -28 0 -56 6 -62 12 -8 8 -12 84 -12 258 1 279 -2 271 78 269
44 -1 46 0 46 27 l0 28 -200 0 -200 0 0 -28z"/>
<path d="M875 614 c-8 -21 -22 -55 -29 -78 -33 -96 -149 -404 -163 -434 -14
-29 -41 -45 -78 -47 -5 0 -11 -12 -13 -27 l-3 -28 136 0 136 0 -3 27 c-2 22
-8 27 -31 29 -47 2 -52 16 -32 89 l17 65 108 0 c103 0 108 -1 113 -23 4 -12 6
-25 6 -30 0 -4 7 -20 14 -35 23 -43 4 -74 -40 -66 -20 4 -23 0 -23 -26 l0 -30
170 0 170 0 0 30 c0 17 -3 29 -7 29 -26 -4 -44 4 -58 25 -15 22 -93 231 -171
459 l-36 107 -84 0 -84 0 -15 -36z m89 -201 c20 -67 36 -126 36 -130 0 -5 -35
-9 -77 -9 -63 1 -78 4 -77 16 1 18 76 252 79 248 1 -2 19 -58 39 -125z"/>
</g>
</svg>
